<?xml version="1.0" encoding="utf-8"?>
<!-- Generator: Adobe Illustrator 17.0.0, SVG Export Plug-In . SVG Version: 6.00 Build 0)  -->
<!DOCTYPE svg PUBLIC "-//W3C//DTD SVG 1.1//EN" "http://www.w3.org/Graphics/SVG/1.1/DTD/svg11.dtd">
<svg version="1.1" xmlns="http://www.w3.org/2000/svg" xmlns:xlink="http://www.w3.org/1999/xlink" x="0px" y="0px" width="120px"
	 height="120px" viewBox="0 0 120 120" style="enable-background:new 0 0 120 120;" xml:space="preserve">
<style type="text/css">
	.st0{fill:#DCE2B5;}
</style>
<g id="Layer_2">
</g>
<g id="Layer_3">
	<path class="st0" d="M114,54.333L107.667,10C105.667,3,99,5.596,99,5.596L80.333,25.667l-16-18.333L54,16c-4.333-4-11,0-11,0
		L4,52.333C0.731,55.378,4,58,4,58l62,50.18c6.333,2.513,6-4.18,6-4.18l2,2l38.667-44.333C114.333,60.333,114,54.333,114,54.333z
		 M56.703,53.711l1.975-2.354l8.354,36.277L56.703,53.711z M59.342,47.378l-1.17-8.777l20.224-11.064L59.342,47.378z"/>
</g>
</svg>
